<svg width="512" height="599" viewBox="0 0 512 599" fill="none" xmlns="http://www.w3.org/2000/svg">
<path opacity="0.78" d="M126.053 131.974H61C44.4315 131.974 31 145.406 31 161.974V423C31 439.569 44.4314 453 61 453H315.851C327.393 453 336.751 443.643 336.751 432.1C336.751 420.557 346.108 411.2 357.651 411.2H433C449.569 411.2 463 397.768 463 381.2V236.1C463 219.531 449.569 206.1 433 206.1H362.562C345.994 206.1 332.562 192.668 332.562 176.1V31C332.562 14.4315 319.131 1 302.562 1H186.053C169.484 1 156.053 14.4314 156.053 31V76.2404V82.3711V101.974C156.053 118.543 142.621 131.974 126.053 131.974Z" fill="url(#paint0_linear_1272_13193)" stroke="#B3B3B3"/>
<rect x="296.633" y="95.9758" width="92.5945" height="80.323" fill="white"/>
<path d="M308.905 166.258H376.956M308.905 155.102H376.956M308.905 160.68H376.956" stroke="#00A4FF" stroke-width="2"/>
<path d="M310.021 109.363V143.389H376.399" stroke="#00A4FF" stroke-width="2"/>
<rect x="317.83" y="120.519" width="6.69358" height="20.0807" fill="#F3F0F6"/>
<rect x="328.986" y="129.444" width="6.69358" height="11.156" fill="#F3F0F6"/>
<rect x="340.142" y="113.825" width="6.69358" height="26.7743" fill="#F3F0F6"/>
<rect x="351.297" y="113.825" width="6.69358" height="26.7743" fill="#F3F0F6"/>
<rect x="362.454" y="124.981" width="6.69358" height="15.6184" fill="#F3F0F6"/>
<path d="M320.619 143.947V146.178" stroke="#00A4FF" stroke-width="2"/>
<path d="M332.333 143.947V146.178" stroke="#00A4FF" stroke-width="2"/>
<path d="M343.488 143.947V146.178" stroke="#00A4FF" stroke-width="2"/>
<path d="M354.645 143.947V146.178" stroke="#00A4FF" stroke-width="2"/>
<path d="M365.8 143.947V146.178" stroke="#00A4FF" stroke-width="2"/>
<rect x="296.633" y="95.9758" width="92.5945" height="7.80918" fill="#00A4FF"/>
<path d="M323.408 99.8804H360.222" stroke="white" stroke-width="2"/>
<path fill-rule="evenodd" clip-rule="evenodd" d="M362.38 248.501C362.43 248.971 362.457 249.448 362.457 249.931C362.457 250.414 362.43 250.891 362.38 251.36L359.427 252.662C359.178 253.606 358.803 254.498 358.322 255.322L359.491 258.331C358.89 259.075 358.212 259.754 357.468 260.354L354.458 259.186C353.635 259.666 352.743 260.041 351.799 260.29L350.497 263.243C350.028 263.293 349.551 263.32 349.068 263.32C348.585 263.32 348.108 263.293 347.638 263.243L346.337 260.289C345.393 260.041 344.5 259.666 343.677 259.186L340.668 260.354C339.924 259.753 339.245 259.075 338.645 258.331L339.813 255.322C339.332 254.498 338.957 253.606 338.709 252.662L335.756 251.361C335.705 250.891 335.679 250.414 335.679 249.931C335.679 249.448 335.705 248.971 335.756 248.501L338.708 247.2C338.957 246.256 339.332 245.363 339.813 244.54L338.644 241.531C339.245 240.786 339.923 240.108 340.667 239.508L343.676 240.676C344.5 240.195 345.392 239.82 346.336 239.572L347.638 236.619C348.108 236.569 348.585 236.542 349.068 236.542C349.551 236.542 350.028 236.569 350.497 236.619L351.799 239.572C352.743 239.82 353.635 240.195 354.458 240.676L357.468 239.508C358.212 240.108 358.89 240.786 359.491 241.531L358.322 244.54C358.803 245.364 359.178 246.256 359.426 247.2L362.38 248.501ZM349.068 245.198C346.454 245.198 344.335 247.317 344.335 249.931C344.335 252.545 346.454 254.664 349.068 254.664C351.682 254.664 353.801 252.545 353.801 249.931C353.801 247.317 351.682 245.198 349.068 245.198Z" fill="#F3F0F6"/>
<path fill-rule="evenodd" clip-rule="evenodd" d="M374.687 239.911C374.531 240.182 374.361 240.447 374.174 240.706C373.986 240.965 373.787 241.21 373.578 241.442L371.492 240.994C370.993 241.403 370.446 241.735 369.87 241.989L369.328 244.054C368.718 244.22 368.092 244.32 367.461 244.353L366.302 242.56C365.675 242.498 365.052 242.353 364.45 242.12L362.608 243.197C362.337 243.041 362.072 242.871 361.813 242.684C361.554 242.496 361.31 242.297 361.077 242.088L361.526 240.002C361.116 239.503 360.784 238.956 360.53 238.38L358.465 237.839C358.3 237.229 358.199 236.602 358.166 235.971L359.959 234.813C360.021 234.185 360.166 233.562 360.399 232.961L359.322 231.119C359.477 230.848 359.648 230.582 359.835 230.323C360.023 230.065 360.222 229.82 360.431 229.588L362.516 230.036C363.015 229.626 363.563 229.294 364.139 229.04L364.68 226.975C365.29 226.81 365.916 226.71 366.548 226.677L367.706 228.469C368.334 228.53 368.957 228.676 369.558 228.909L371.4 227.832C371.672 227.988 371.937 228.158 372.196 228.346C372.455 228.533 372.699 228.732 372.932 228.941L372.483 231.027C372.893 231.526 373.225 232.073 373.479 232.649L375.544 233.191C375.709 233.801 375.809 234.427 375.842 235.058L374.05 236.217C373.988 236.844 373.843 237.467 373.61 238.069L374.687 239.911ZM368.84 232.981C367.44 231.967 365.484 232.28 364.47 233.68C363.457 235.079 363.77 237.035 365.169 238.049C366.569 239.062 368.525 238.749 369.539 237.35C370.552 235.95 370.239 233.994 368.84 232.981Z" fill="#F3F0F6"/>
<rect x="198.46" y="201.958" width="65.8202" height="80.323" fill="white"/>
<rect x="206.27" y="214.229" width="23.4275" height="22.3119" fill="#00A4FF"/>
<path d="M206.828 263.873H257.029M206.828 248.255H257.029M206.828 256.064H257.029" stroke="#00A4FF" stroke-width="2"/>
<path d="M237.506 241.004H257.029" stroke="#00A4FF" stroke-width="2"/>
<path d="M237.506 227.616H257.029" stroke="#00A4FF" stroke-width="2"/>
<path d="M237.506 234.31H257.029" stroke="#00A4FF" stroke-width="2"/>
<path d="M237.506 220.923H257.029" stroke="#00A4FF" stroke-width="2"/>
<path d="M237.506 215.345H257.029" stroke="#00A4FF" stroke-width="2"/>
<rect x="253.125" y="253.275" width="92.5945" height="80.323" fill="white"/>
<rect x="253.125" y="253.275" width="92.5945" height="7.80918" fill="#00A4FF"/>
<path d="M279.899 257.18H316.714" stroke="white" stroke-width="2"/>
<path d="M265.396 323.558H333.448M265.396 312.402H333.448M265.396 317.98H333.448" stroke="#00A4FF" stroke-width="2"/>
<path fill-rule="evenodd" clip-rule="evenodd" d="M238.754 289.732C238.573 290.049 238.374 290.359 238.155 290.661C237.937 290.963 237.704 291.249 237.46 291.52L235.025 290.996C234.442 291.474 233.804 291.862 233.131 292.159L232.499 294.569C231.787 294.763 231.055 294.88 230.318 294.918L228.966 292.826C228.234 292.753 227.506 292.584 226.804 292.312L224.653 293.569C224.337 293.387 224.027 293.188 223.725 292.97C223.423 292.751 223.137 292.518 222.866 292.275L223.39 289.839C222.912 289.257 222.524 288.618 222.227 287.945L219.817 287.313C219.624 286.601 219.507 285.87 219.468 285.133L221.56 283.781C221.633 283.048 221.802 282.321 222.074 281.618L220.817 279.468C220.999 279.152 221.198 278.841 221.416 278.54C221.635 278.238 221.868 277.952 222.111 277.681L224.546 278.204C225.129 277.726 225.768 277.338 226.441 277.041L227.072 274.631C227.785 274.438 228.516 274.321 229.253 274.282L230.605 276.374C231.337 276.447 232.065 276.616 232.767 276.888L234.918 275.632C235.234 275.813 235.544 276.012 235.846 276.231C236.148 276.45 236.434 276.682 236.705 276.926L236.182 279.361C236.66 279.944 237.048 280.582 237.345 281.255L239.755 281.887C239.948 282.599 240.065 283.33 240.103 284.067L238.011 285.42C237.938 286.152 237.769 286.879 237.497 287.582L238.754 289.732ZM231.928 281.642C230.294 280.459 228.011 280.824 226.827 282.458C225.644 284.092 226.01 286.376 227.643 287.559C229.278 288.742 231.561 288.377 232.745 286.743C233.928 285.108 233.562 282.825 231.928 281.642Z" fill="#F3F0F6"/>
<circle cx="253.683" cy="165.701" r="2.78899" fill="#F3F0F6"/>
<circle cx="346.277" cy="320.769" r="2.78899" fill="#F3F0F6"/>
<circle cx="369.705" cy="256.064" r="2.78899" fill="#F3F0F6"/>
<circle cx="278.673" cy="286.743" r="13.3872" fill="#F3F0F6"/>
<path d="M292.06 286.743C292.06 283.646 290.986 280.644 289.021 278.25C287.056 275.856 284.322 274.217 281.285 273.613C278.247 273.009 275.094 273.476 272.362 274.936C269.631 276.396 267.49 278.758 266.305 281.62C265.119 284.481 264.963 287.665 265.862 290.629C266.761 293.593 268.66 296.153 271.235 297.874C273.811 299.595 276.903 300.369 279.985 300.066C283.067 299.762 285.949 298.399 288.139 296.209L278.673 286.743H292.06Z" fill="#D6D0C7"/>
<circle cx="320.172" cy="286.743" r="13.3872" fill="#F3F0F6"/>
<path d="M333.559 286.743C333.559 284.177 332.821 281.665 331.434 279.506C330.047 277.347 328.068 275.632 325.734 274.566C323.4 273.5 320.809 273.127 318.269 273.492C315.728 273.857 313.347 274.944 311.407 276.624L320.172 286.743H333.559Z" fill="#D6D0C7"/>
<path d="M350.808 341.816L350.648 342V342.244V345.496C350.648 347.346 349.148 348.846 347.298 348.846H345.72H344.142C342.291 348.846 340.792 347.346 340.792 345.496V342.244V342.028L340.662 341.854L340.543 341.696C339.539 340.358 338.693 338.91 338.018 337.381L337.682 336.618C335.106 330.773 339.387 324.208 345.775 324.208C351.998 324.208 356.274 330.465 354.014 336.264L353.721 337.015C353.036 338.772 352.05 340.397 350.808 341.816Z" stroke="#00A4FF" stroke-width="1.3"/>
<path d="M345.431 340.013V339.513C345.37 339.513 345.309 339.524 345.252 339.546L345.431 340.013ZM345.889 342.045C345.574 341.321 345.206 340.256 345.101 339.395C345.048 338.955 345.073 338.641 345.147 338.459C345.18 338.378 345.215 338.343 345.241 338.325C345.266 338.308 345.319 338.282 345.431 338.282V337.282C345.154 337.282 344.895 337.349 344.675 337.501C344.456 337.651 344.312 337.86 344.221 338.081C344.049 338.504 344.049 339.026 344.109 339.516C344.23 340.514 344.64 341.681 344.972 342.444L345.889 342.045ZM345.252 339.546C345.097 339.606 344.998 339.6 344.932 339.582C344.862 339.562 344.78 339.514 344.688 339.408C344.491 339.181 344.32 338.775 344.198 338.246L343.223 338.472C343.357 339.048 343.572 339.65 343.934 340.065C344.121 340.28 344.361 340.461 344.663 340.545C344.969 340.63 345.289 340.603 345.609 340.48L345.252 339.546ZM345.777 338.629V339.24H346.777V338.629H345.777ZM345.504 339.513H345.431V340.513H345.504V339.513ZM345.777 339.24C345.777 339.391 345.655 339.513 345.504 339.513V340.513C346.207 340.513 346.777 339.943 346.777 339.24H345.777ZM345.431 338.282C345.622 338.282 345.777 338.437 345.777 338.629H346.777C346.777 337.885 346.174 337.282 345.431 337.282V338.282ZM344.198 338.246C343.987 337.339 344.599 336.405 345.609 336.018L345.252 335.084C343.923 335.593 342.867 336.938 343.223 338.472L344.198 338.246Z" fill="#00A4FF"/>
<path d="M341.257 342.245H350.182V345.033H341.257M341.257 347.265H350.182" stroke="#00A4FF"/>
<path d="M304.721 167.152H302.47C302.302 165.985 301.581 164.972 300.533 164.433C299.486 163.893 298.242 163.893 297.195 164.433C296.147 164.972 295.426 165.985 295.257 167.152H277.389C276.871 167.152 276.375 167.358 276.009 167.724C275.643 168.09 275.437 168.586 275.437 169.104V187.585C275.437 188.103 275.643 188.599 276.009 188.965C276.375 189.331 276.871 189.537 277.389 189.538H287.889C287.782 190.212 287.463 190.834 286.979 191.315L286.154 192.141H285.849C285.573 192.141 285.308 192.251 285.113 192.446C284.918 192.641 284.808 192.906 284.808 193.182V194.744C284.808 194.882 284.862 195.014 284.96 195.112C285.058 195.21 285.19 195.265 285.328 195.265H296.782C296.92 195.265 297.052 195.21 297.15 195.112C297.247 195.014 297.302 194.882 297.302 194.744V193.182C297.302 192.906 297.192 192.641 296.997 192.446C296.802 192.251 296.537 192.141 296.261 192.141H295.956L295.131 191.315C294.647 190.834 294.328 190.212 294.221 189.538H304.721C305.239 189.537 305.735 189.331 306.101 188.965C306.467 188.599 306.673 188.103 306.673 187.585V169.104C306.673 168.586 306.467 168.09 306.101 167.724C305.735 167.358 305.238 167.152 304.721 167.152ZM301.415 167.152H300.548C300.498 166.695 300.381 166.249 300.201 165.826L299.986 165.324C300.721 165.677 301.25 166.353 301.415 167.152ZM300.202 169.518C300.382 169.095 300.498 168.649 300.548 168.193H301.415C301.25 168.992 300.722 169.668 299.986 170.021L300.202 169.518ZM298.484 166.237L298.864 165.35L299.244 166.237C299.369 166.529 299.455 166.837 299.5 167.152H298.228C298.273 166.837 298.359 166.529 298.484 166.237ZM299.5 168.193C299.455 168.508 299.369 168.815 299.244 169.108L298.864 169.995L298.483 169.108C298.359 168.816 298.273 168.508 298.228 168.193H299.5ZM297.742 165.324L297.526 165.827C297.346 166.249 297.23 166.695 297.18 167.152H296.313C296.478 166.353 297.006 165.676 297.742 165.324ZM297.18 168.193C297.23 168.649 297.346 169.096 297.526 169.518L297.742 170.021C297.006 169.668 296.478 168.992 296.313 168.193L297.18 168.193ZM296.261 193.182V194.224H285.849L285.848 193.182H296.261ZM294.394 192.052L294.483 192.141H287.626L287.716 192.052C288.396 191.376 288.827 190.49 288.941 189.538H293.168C293.282 190.49 293.714 191.376 294.394 192.052ZM305.632 187.586C305.632 187.827 305.536 188.059 305.365 188.23C305.194 188.401 304.963 188.497 304.721 188.497H277.389C277.147 188.497 276.915 188.401 276.745 188.23C276.574 188.059 276.478 187.827 276.478 187.586V186.414H305.632L305.632 187.586ZM305.632 185.373H276.478V169.104C276.478 168.862 276.574 168.631 276.745 168.46C276.916 168.289 277.147 168.193 277.389 168.193H295.258C295.371 168.971 295.733 169.691 296.289 170.247C296.845 170.803 297.565 171.165 298.343 171.279L299.385 171.279C300.163 171.166 300.883 170.803 301.439 170.247C301.995 169.691 302.357 168.971 302.47 168.193H304.721C304.962 168.193 305.194 168.289 305.365 168.46C305.536 168.631 305.632 168.862 305.632 169.104L305.632 185.373Z" fill="#00A4FF"/>
<path d="M296.122 179.107H293.376C293.442 179.04 293.504 178.968 293.56 178.892L294.597 177.471C295.273 176.55 295.42 175.356 294.987 174.305L294.975 174.275C294.725 173.664 294.203 173.199 293.558 173.012C292.913 172.825 292.216 172.937 291.666 173.316C291.865 172.577 292.262 171.902 292.816 171.362L292.904 171.277H292.904C293.001 171.183 293.056 171.056 293.056 170.922C293.057 170.789 293.003 170.661 292.906 170.567C292.81 170.473 292.68 170.42 292.543 170.421C292.407 170.421 292.277 170.475 292.181 170.569L292.093 170.655L292.093 170.655C291.93 170.816 291.777 170.986 291.635 171.166L291.493 170.821C291.329 170.427 291.038 170.095 290.664 169.878C290.289 169.661 289.852 169.57 289.42 169.619L287.948 169.788C287.774 169.808 287.622 169.914 287.547 170.069C287.471 170.224 287.482 170.406 287.576 170.552L288.418 171.857V171.857C288.78 172.42 289.414 172.763 290.094 172.762C290.204 172.762 290.314 172.753 290.422 172.736L290.797 172.675C290.702 172.944 290.63 173.219 290.58 173.5C290.049 173.017 289.309 172.82 288.602 172.976C287.895 173.131 287.311 173.617 287.042 174.275L287.029 174.305C286.597 175.356 286.744 176.551 287.419 177.471L288.457 178.892C288.513 178.968 288.575 179.04 288.641 179.107H286.918C286.005 179.107 285.16 179.584 284.704 180.358C284.247 181.131 284.247 182.085 284.704 182.858C285.16 183.632 286.005 184.109 286.918 184.109H296.122C296.257 184.109 296.387 184.056 296.483 183.962C296.579 183.868 296.633 183.741 296.633 183.608V179.608C296.633 179.475 296.579 179.348 296.483 179.254C296.387 179.16 296.257 179.107 296.122 179.107L296.122 179.107ZM290.254 171.749C290.067 171.779 289.875 171.755 289.702 171.679C289.529 171.604 289.383 171.479 289.282 171.323L288.873 170.688L289.539 170.612C289.749 170.588 289.961 170.632 290.142 170.738C290.324 170.843 290.465 171.003 290.544 171.195L290.74 171.67L290.254 171.749ZM288.251 176.89V176.889C287.779 176.246 287.676 175.411 287.979 174.676L287.991 174.646V174.646C288.098 174.386 288.298 174.172 288.555 174.046C288.811 173.92 289.106 173.89 289.383 173.961C289.661 174.033 289.902 174.202 290.061 174.435C290.272 174.745 290.628 174.931 291.008 174.931C291.389 174.931 291.744 174.745 291.956 174.435C292.115 174.202 292.356 174.033 292.633 173.961C292.911 173.89 293.206 173.92 293.462 174.046C293.719 174.172 293.919 174.385 294.026 174.646L294.038 174.676C294.34 175.411 294.238 176.246 293.765 176.889L292.728 178.311C292.618 178.462 292.46 178.576 292.279 178.633C292.098 178.691 291.903 178.69 291.723 178.63L291.17 178.45V178.45C291.065 178.416 290.952 178.416 290.847 178.45L290.294 178.63V178.63C290.114 178.69 289.918 178.691 289.738 178.633C289.557 178.576 289.399 178.462 289.289 178.311L288.251 176.89ZM295.61 181.108H286.918C286.636 181.108 286.407 181.332 286.407 181.608C286.407 181.884 286.636 182.108 286.918 182.108H295.61V183.108H286.918C286.37 183.108 285.864 182.822 285.589 182.358C285.315 181.894 285.315 181.322 285.589 180.858C285.864 180.393 286.37 180.107 286.918 180.107H295.61V181.108Z" fill="#00A4FF"/>
<g filter="url(#filter0_bd_1272_13193)">
<path d="M52 383.228V359.065V195.038C52 175.156 68.1177 159.038 88 159.038H159.529C179.412 159.038 195.529 142.92 195.529 123.038V67C195.529 47.1178 211.647 31 231.529 31H371.279C391.162 31 407.279 47.1177 407.279 67V140.507C407.279 140.518 407.288 140.526 407.298 140.526C407.309 140.526 407.318 140.535 407.318 140.546V321.008C407.318 340.891 391.2 357.008 371.318 357.008H348.361H256.441H255.177C238.76 357.008 231.204 377.433 243.668 388.118C256.132 398.803 248.575 419.228 232.158 419.228H154.774H88C68.1177 419.228 52 403.11 52 383.228Z" fill="white" fill-opacity="0.01" shape-rendering="crispEdges"/>
<path d="M52 383.228V359.065V195.038C52 175.156 68.1177 159.038 88 159.038H159.529C179.412 159.038 195.529 142.92 195.529 123.038V67C195.529 47.1178 211.647 31 231.529 31H371.279C391.162 31 407.279 47.1177 407.279 67V140.507C407.279 140.518 407.288 140.526 407.298 140.526C407.309 140.526 407.318 140.535 407.318 140.546V321.008C407.318 340.891 391.2 357.008 371.318 357.008H348.361H256.441H255.177C238.76 357.008 231.204 377.433 243.668 388.118C256.132 398.803 248.575 419.228 232.158 419.228H154.774H88C68.1177 419.228 52 403.11 52 383.228Z" stroke="#0081C9" shape-rendering="crispEdges"/>
</g>
<path fill-rule="evenodd" clip-rule="evenodd" d="M302.172 98.2301C302.017 98.5009 301.847 98.7666 301.659 99.0254C301.472 99.2839 301.273 99.529 301.064 99.7609L298.978 99.3128C298.479 99.722 297.932 100.054 297.355 100.309L296.814 102.373C296.204 102.539 295.578 102.639 294.947 102.672L293.788 100.88C293.161 100.817 292.538 100.673 291.936 100.439L290.094 101.516C289.823 101.361 289.558 101.19 289.299 101.003C289.04 100.816 288.795 100.616 288.563 100.408L289.012 98.3214C288.602 97.8225 288.27 97.2755 288.016 96.6992L285.951 96.1579C285.786 95.5478 285.685 94.9215 285.652 94.2902L287.445 93.132C287.506 92.5046 287.652 91.8815 287.885 91.2798L286.808 89.4378C286.963 89.1669 287.134 88.901 287.321 88.6424C287.509 88.3837 287.708 88.1389 287.917 87.9068L290.002 88.3551C290.501 87.9457 291.048 87.6134 291.625 87.3588L292.166 85.2946C292.776 85.1288 293.402 85.0288 294.034 84.9957L295.192 86.7879C295.819 86.8497 296.443 86.995 297.044 87.228L298.886 86.1515C299.157 86.307 299.423 86.4775 299.682 86.6648C299.94 86.8522 300.185 87.0513 300.417 87.2602L299.969 89.3462C300.379 89.8453 300.711 90.3919 300.965 90.9687L303.029 91.5098C303.195 92.1199 303.295 92.7461 303.328 93.3775L301.536 94.536C301.474 95.163 301.329 95.7862 301.096 96.388L302.172 98.2301ZM296.325 91.2998C294.926 90.2863 292.97 90.5993 291.956 91.9988C290.943 93.3983 291.256 95.3546 292.655 96.3681C294.055 97.3817 296.011 97.0687 297.025 95.6692C298.038 94.2693 297.725 92.3132 296.325 91.2998Z" fill="#F3F0F6"/>
<path d="M236.949 384.916H17.8509L1 423.404V427.866H255.914V423.404L236.949 384.916Z" fill="white"/>
<path d="M212.425 399.418C211.31 398.303 207.298 396.741 204.621 399.418C201.274 402.765 202.385 416.152 212.425 413.363" stroke="#00A4FF"/>
<path d="M212.43 399.418C211.571 398.387 209.109 396.999 207.048 399.474C204.472 402.569 204.472 415.977 212.201 413.399" stroke="#00A4FF"/>
<path d="M228.106 393.282C228.106 393.37 228.016 393.608 227.44 393.932C226.906 394.233 226.099 394.521 225.06 394.768C222.988 395.261 220.1 395.571 216.892 395.571C213.685 395.571 210.797 395.261 208.725 394.768C207.686 394.521 206.879 394.233 206.345 393.932C205.769 393.608 205.679 393.37 205.679 393.282C205.679 393.195 205.769 392.956 206.345 392.633C206.879 392.332 207.686 392.044 208.725 391.797C210.797 391.303 213.685 390.993 216.892 390.993C220.1 390.993 222.988 391.303 225.06 391.797C226.099 392.044 226.906 392.332 227.44 392.633C228.016 392.956 228.106 393.195 228.106 393.282Z" stroke="#00A4FF"/>
<ellipse cx="217.45" cy="393.84" rx="10.0404" ry="1.1156" fill="#00A4FF"/>
<path d="M228.048 415.594C228.048 417.135 223.362 418.383 216.892 418.383C210.423 418.383 205.736 417.135 205.736 415.594" stroke="#00A4FF"/>
<path d="M228.048 393.282V416.152M205.736 393.282V398.303M205.736 416.152V412.248" stroke="#00A4FF"/>
<path d="M90.8061 274.522C97.3891 263.001 94.8002 248.244 97.8966 234.494C98.0002 234.034 98.0807 233.573 98.2007 233.117C99.0834 229.762 104.495 215.51 126.505 216.511C146.14 217.403 150.491 224.32 152.164 227.666C154.849 233.036 158.114 247.375 157.742 254.999C157.37 257.602 157.184 264.481 159.415 271.175C161.542 277.556 162.487 285.796 162.731 289.612C162.754 289.966 162.753 290.324 162.604 290.645C161.768 292.446 157.564 296.304 145.47 300.738C133.379 305.172 104.905 300.534 88.4094 296.855C85.5868 296.226 83.7007 293.617 84.3506 290.799C85.3173 286.607 87.2648 280.719 90.8061 274.522Z" fill="#00A4FF"/>
<path d="M66.2815 372.002L74.6297 379.387L71.8407 343.131H178.938L177.822 360.422L176.149 383.85L196.449 372.008C200.558 369.611 203.413 365.537 204.264 360.857C204.844 357.665 204.458 354.373 203.154 351.402L183.204 305.941C175.867 289.223 159.338 278.426 141.081 278.426H117.663C99.0447 278.426 82.2626 289.648 75.1508 306.854L69.6095 320.261L60.7383 353.659C60.3324 355.186 60.127 356.76 60.127 358.341C60.127 363.566 62.3679 368.54 66.2815 372.002Z" fill="#00466C"/>
<path d="M93.595 329.185C90.9176 335.433 86.9014 341.085 85.228 343.13H98.6152C98.0574 335.879 96.2724 322.938 93.595 329.185Z" fill="#00A4FF"/>
<path d="M161.228 322.188C165.467 331.57 171.826 340.059 174.476 343.131H153.279C154.162 332.24 156.989 312.806 161.228 322.188Z" fill="#00A4FF"/>
<path d="M116.278 281.495C125.079 282.095 136.356 281.437 141.896 280.682C142.688 280.574 143.274 281.511 142.803 282.157C136.165 291.272 122.802 294.387 115.054 286.196C112.282 283.266 111.769 281.187 116.278 281.495Z" fill="#00A4FF"/>
<path d="M147.143 256.622C147.143 267.712 137.903 283.396 126.505 283.396C115.106 283.396 105.866 267.712 105.866 256.622C105.866 245.531 115.106 236.541 126.505 236.541C137.903 236.541 147.143 245.531 147.143 256.622Z" fill="#D9D9D9"/>
<path d="M77.4363 407.186L72.5424 343.781H178.242L173.891 407.186H80.164H77.4363Z" fill="white" stroke="#00A4FF" stroke-width="1.3"/>
<path d="M134.93 375.484C134.93 376.774 134.037 378.033 132.399 378.997C130.772 379.954 128.492 380.561 125.947 380.561C123.402 380.561 121.122 379.954 119.495 378.997C117.857 378.033 116.964 376.774 116.964 375.484C116.964 374.193 117.857 372.934 119.495 371.97C121.122 371.013 123.402 370.406 125.947 370.406C128.492 370.406 130.772 371.013 132.399 371.97C134.037 372.934 134.93 374.193 134.93 375.484Z" stroke="#00A4FF"/>
<path d="M7.13597 596.04V432.379H19.9653L11.1428 596.148C11.0854 597.212 10.2061 598.045 9.14081 598.045C8.03357 598.045 7.13597 597.147 7.13597 596.04Z" fill="white" stroke="#00A4FF"/>
<path d="M250.336 596.04V432.379H237.506L246.329 596.148C246.386 597.212 247.266 598.045 248.331 598.045C249.438 598.045 250.336 597.147 250.336 596.04Z" fill="white" stroke="#00A4FF"/>
<path d="M20.5231 553.523V432.379H30.5635L23.6632 553.612C23.6159 554.444 22.9276 555.094 22.0944 555.094C21.2266 555.094 20.5231 554.391 20.5231 553.523Z" fill="white" stroke="#00A4FF"/>
<path d="M236.949 553.523V432.379H226.908L233.808 553.612C233.856 554.444 234.544 555.094 235.377 555.094C236.245 555.094 236.949 554.391 236.949 553.523Z" fill="white" stroke="#00A4FF"/>
<path d="M238.049 386.64L255.914 422.896V428.379C255.914 430.588 254.123 432.379 251.914 432.379H249.778H5C2.79086 432.379 1 430.588 1 428.379V422.896L16.6883 386.813C17.3232 385.353 18.764 384.408 20.3565 384.408H75.1872L77.0653 403.617C77.2656 405.666 78.988 407.228 81.0464 407.228H170.29C172.348 407.228 174.07 405.666 174.271 403.617L176.149 384.408H228.582H234.461C235.984 384.408 237.375 385.273 238.049 386.64Z" fill="white"/>
<path d="M255.914 422.896L238.049 386.64C237.375 385.273 235.984 384.408 234.461 384.408H228.582H176.149L174.271 403.617C174.07 405.666 172.348 407.228 170.29 407.228H81.0464C78.988 407.228 77.2656 405.666 77.0653 403.617L75.1872 384.408H20.3565C18.764 384.408 17.3232 385.353 16.6883 386.813L1 422.896M255.914 422.896V428.379C255.914 430.588 254.123 432.379 251.914 432.379H249.778H5C2.79086 432.379 1 430.588 1 428.379V422.896M255.914 422.896V422.896C254.504 424.659 252.369 425.685 250.111 425.685H128.178H4.93816C3.53311 425.685 2.23108 424.948 1.50819 423.743L1 422.896M249.778 598.045H245.874" stroke="#00A4FF"/>
<path d="M209.078 399.418C207.963 398.302 203.951 396.741 201.274 399.418C197.927 402.765 199.038 416.152 209.078 413.363" stroke="#00A4FF"/>
<path d="M209.083 399.418C208.224 398.387 205.762 396.999 203.701 399.474C201.125 402.569 201.125 415.977 208.854 413.399" stroke="#00A4FF"/>
<path d="M224.759 393.282C224.759 393.369 224.669 393.608 224.093 393.932C223.559 394.233 222.752 394.52 221.712 394.768C219.641 395.261 216.753 395.571 213.545 395.571C210.338 395.571 207.45 395.261 205.378 394.768C204.338 394.52 203.532 394.233 202.997 393.932C202.422 393.608 202.332 393.369 202.332 393.282C202.332 393.195 202.422 392.956 202.997 392.632C203.532 392.332 204.338 392.044 205.378 391.797C207.45 391.303 210.338 390.993 213.545 390.993C216.753 390.993 219.641 391.303 221.712 391.797C222.752 392.044 223.559 392.332 224.093 392.632C224.669 392.956 224.759 393.195 224.759 393.282Z" stroke="#00A4FF"/>
<ellipse cx="214.103" cy="393.84" rx="10.0404" ry="1.1156" fill="#00A4FF"/>
<path d="M210.287 389.609C209.625 388.606 210.366 388.801 207.999 387.001" stroke="#00A4FF" stroke-width="0.5"/>
<path d="M216.39 390.496C214 388.5 216 390.5 215.5 386.5" stroke="#00A4FF" stroke-width="0.5"/>
<path d="M221 390C222 389.5 219.499 390.5 222.5 387.5" stroke="#00A4FF" stroke-width="0.5"/>
<path d="M224.701 415.594C224.701 417.135 220.014 418.383 213.545 418.383C207.076 418.383 202.389 417.135 202.389 415.594" stroke="#00A4FF"/>
<path d="M224.701 393.282V416.152M202.389 393.282V398.302M202.389 416.152V412.247" stroke="#00A4FF"/>
<path d="M17.2308 407.654L35.8845 393.247M17.2308 407.654H62.6045M17.2308 407.654V410.226H62.6045M17.2308 407.654C16.0209 405.595 13.3657 405.767 12.1893 406.11M35.8845 393.247C36.0525 392.046 35.7836 389.851 33.3637 390.674C30.9438 391.497 18.2391 401.308 12.1893 406.11M35.8845 393.247H70.1668M12.1893 406.11C11.8532 410.055 13.9034 416.401 24.7931 410.226M62.6045 407.654L70.1668 393.247M62.6045 407.654V410.226M70.1668 393.247V395.819L62.6045 410.226" stroke="#00A4FF"/>
<path d="M71.3406 391.659C71.3406 391.868 71.1888 392.177 70.6402 392.548C70.1091 392.906 69.3076 393.249 68.2724 393.545C66.2087 394.135 63.3286 394.506 60.1269 394.506C56.9251 394.506 54.045 394.135 51.9813 393.545C50.9461 393.249 50.1446 392.906 49.6135 392.548C49.0649 392.177 48.9131 391.868 48.9131 391.659C48.9131 391.451 49.0649 391.141 49.6135 390.771C50.1446 390.412 50.9461 390.069 51.9813 389.774C54.045 389.184 56.9251 388.812 60.1269 388.812C63.3286 388.812 66.2087 389.184 68.2724 389.774C69.3076 390.069 70.1091 390.412 70.6402 390.771C71.1888 391.141 71.3406 391.451 71.3406 391.659Z" stroke="#00A4FF"/>
<ellipse cx="59.5691" cy="391.659" rx="11.156" ry="2.23119" fill="#00A4FF"/>
<path d="M71.2826 412.33V392.217C62.8041 395.787 52.8753 393.705 48.9707 392.217V412.431C48.9707 414.04 49.9327 415.509 51.4857 415.931C55.4572 417.01 61.9261 417.8 68.6634 415.943C70.2636 415.503 71.2826 413.99 71.2826 412.33Z" fill="white" stroke="#00A4FF"/>
<path d="M47.3151 383.292C44.148 383.292 43.2287 384.603 43.1612 385.83C43.1161 386.651 43.3421 387.319 44.0477 386.896C45.4978 386.027 46.2027 387.765 44.6214 388.363C43.3159 388.857 42.2769 389.427 42.2769 389.986C42.2769 390.953 44.5256 390.057 46.4244 389.129C47.739 388.486 49.1805 389.986 50.6438 389.986C51.5483 389.986 52.4989 391.136 53.4328 391.847C53.7936 392.122 54.2396 392.244 54.6885 392.309C57.5722 392.726 57.7179 393.122 62.9154 392.775C65.7218 392.588 66.82 389.986 72.9732 390.544C75.8058 390.8 71.8576 386.082 67.953 385.524C64.0484 384.966 74.023 380.14 68.4934 381.061C61.7998 382.176 68.5108 379.388 69.0686 376.041C69.6264 372.694 74.6466 372.136 72.4154 370.463C70.1842 368.79 62.375 373.252 61.2594 375.483C61.5763 374.739 65.1436 366.001 63.4906 366.001C61.4245 366.001 59.586 373.81 57.9126 368.79C56.2393 363.769 51.2196 363.212 48.4301 363.212C45.6405 363.212 54.5659 369.347 53.4503 373.252C53.1745 374.217 52.9627 374.816 52.8016 375.162C52.468 375.878 52.1392 374.534 51.5614 373.996C49.3878 371.971 46.9475 374.188 45.9824 375.494C45.7267 375.84 45.4729 376.192 45.187 376.513C43.7718 378.104 43.8883 379.087 46.7392 378.272C47.6947 377.999 48.5717 378.137 49.3822 378.528C51.3723 379.49 49.5253 383.292 47.3151 383.292Z" fill="#F5F5F5" stroke="#00A4FF"/>
<circle cx="311.694" cy="78.6844" r="2.78899" fill="#F3F0F6"/>
<circle cx="172.244" cy="228.174" r="2.78899" fill="#F3F0F6"/>
<defs>
<filter id="filter0_bd_1272_13193" x="21.5" y="4.5" width="416.317" height="449.228" filterUnits="userSpaceOnUse" color-interpolation-filters="sRGB">
<feFlood flood-opacity="0" result="BackgroundImageFix"/>
<feGaussianBlur in="BackgroundImageFix" stdDeviation="2.5"/>
<feComposite in2="SourceAlpha" operator="in" result="effect1_backgroundBlur_1272_13193"/>
<feColorMatrix in="SourceAlpha" type="matrix" values="0 0 0 0 0 0 0 0 0 0 0 0 0 0 0 0 0 0 127 0" result="hardAlpha"/>
<feOffset dy="4"/>
<feGaussianBlur stdDeviation="15"/>
<feComposite in2="hardAlpha" operator="out"/>
<feColorMatrix type="matrix" values="0 0 0 0 0 0 0 0 0 0 0 0 0 0 0 0 0 0 0.25 0"/>
<feBlend mode="normal" in2="effect1_backgroundBlur_1272_13193" result="effect2_dropShadow_1272_13193"/>
<feBlend mode="normal" in="SourceGraphic" in2="effect2_dropShadow_1272_13193" result="shape"/>
</filter>
<linearGradient id="paint0_linear_1272_13193" x1="44.616" y1="229.935" x2="454.62" y2="236.709" gradientUnits="userSpaceOnUse">
<stop stop-color="#0075B6"/>
<stop offset="1" stop-color="#4AD4FF"/>
<stop offset="1" stop-color="#4AD4FF"/>
<stop offset="1" stop-color="#4AD4FF"/>
</linearGradient>
</defs>
</svg>
