<svg width="91" height="32" viewBox="0 0 91 32" fill="none" xmlns="http://www.w3.org/2000/svg">
<path d="M5.90508 5.4C5.14508 5.4 4.51508 5.17 4.01508 4.71C3.53508 4.23 3.29508 3.64 3.29508 2.94C3.29508 2.24 3.53508 1.66 4.01508 1.2C4.51508 0.719999 5.14508 0.479999 5.90508 0.479999C6.64508 0.479999 7.25508 0.719999 7.73508 1.2C8.21508 1.66 8.45508 2.24 8.45508 2.94C8.45508 3.64 8.21508 4.23 7.73508 4.71C7.25508 5.17 6.64508 5.4 5.90508 5.4ZM7.97508 26.73C7.97508 28.57 7.51508 29.89 6.59508 30.69C5.69508 31.51 4.39508 31.92 2.69508 31.92H0.835078V28.35H2.03508C2.67508 28.35 3.12508 28.22 3.38508 27.96C3.64508 27.72 3.77508 27.32 3.77508 26.76V7.38H7.97508V26.73ZM19.7047 24.27C18.1047 24.27 16.6647 23.92 15.3847 23.22C14.1047 22.5 13.0947 21.49 12.3547 20.19C11.6347 18.89 11.2747 17.39 11.2747 15.69C11.2747 13.99 11.6447 12.49 12.3847 11.19C13.1447 9.89 14.1747 8.89 15.4747 8.19C16.7747 7.47 18.2247 7.11 19.8247 7.11C21.4247 7.11 22.8747 7.47 24.1747 8.19C25.4747 8.89 26.4947 9.89 27.2347 11.19C27.9947 12.49 28.3747 13.99 28.3747 15.69C28.3747 17.39 27.9847 18.89 27.2047 20.19C26.4447 21.49 25.4047 22.5 24.0847 23.22C22.7847 23.92 21.3247 24.27 19.7047 24.27ZM19.7047 20.61C20.4647 20.61 21.1747 20.43 21.8347 20.07C22.5147 19.69 23.0547 19.13 23.4547 18.39C23.8547 17.65 24.0547 16.75 24.0547 15.69C24.0547 14.11 23.6347 12.9 22.7947 12.06C21.9747 11.2 20.9647 10.77 19.7647 10.77C18.5647 10.77 17.5547 11.2 16.7347 12.06C15.9347 12.9 15.5347 14.11 15.5347 15.69C15.5347 17.27 15.9247 18.49 16.7047 19.35C17.5047 20.19 18.5047 20.61 19.7047 20.61ZM36.5455 10.83V18.87C36.5455 19.43 36.6755 19.84 36.9355 20.1C37.2155 20.34 37.6755 20.46 38.3155 20.46H40.2655V24H37.6255C34.0855 24 32.3155 22.28 32.3155 18.84V10.83H30.3355V7.38H32.3155V3.27H36.5455V7.38H40.2655V10.83H36.5455ZM48.3764 10.83V18.87C48.3764 19.43 48.5064 19.84 48.7664 20.1C49.0464 20.34 49.5064 20.46 50.1464 20.46H52.0964V24H49.4564C45.9164 24 44.1464 22.28 44.1464 18.84V10.83H42.1664V7.38H44.1464V3.27H48.3764V7.38H52.0964V10.83H48.3764ZM70.7673 15.33C70.7673 15.93 70.7273 16.47 70.6473 16.95H58.4973C58.5973 18.15 59.0173 19.09 59.7573 19.77C60.4973 20.45 61.4073 20.79 62.4873 20.79C64.0473 20.79 65.1573 20.12 65.8173 18.78H70.3473C69.8673 20.38 68.9473 21.7 67.5873 22.74C66.2273 23.76 64.5573 24.27 62.5773 24.27C60.9773 24.27 59.5373 23.92 58.2573 23.22C56.9973 22.5 56.0073 21.49 55.2873 20.19C54.5873 18.89 54.2373 17.39 54.2373 15.69C54.2373 13.97 54.5873 12.46 55.2873 11.16C55.9873 9.86 56.9673 8.86 58.2273 8.16C59.4873 7.46 60.9373 7.11 62.5773 7.11C64.1573 7.11 65.5673 7.45 66.8073 8.13C68.0673 8.81 69.0373 9.78 69.7173 11.04C70.4173 12.28 70.7673 13.71 70.7673 15.33ZM66.4173 14.13C66.3973 13.05 66.0073 12.19 65.2473 11.55C64.4873 10.89 63.5573 10.56 62.4573 10.56C61.4173 10.56 60.5373 10.88 59.8173 11.52C59.1173 12.14 58.6873 13.01 58.5273 14.13H66.4173ZM72.9529 15.63C72.9529 13.95 73.2829 12.46 73.9429 11.16C74.6229 9.86 75.5429 8.86 76.7029 8.16C77.8629 7.46 79.1529 7.11 80.5729 7.11C81.6529 7.11 82.6829 7.35 83.6629 7.83C84.6429 8.29 85.4229 8.91 86.0029 9.69V1.8H90.2629V24H86.0029V21.54C85.4829 22.36 84.7529 23.02 83.8129 23.52C82.8729 24.02 81.7829 24.27 80.5429 24.27C79.1429 24.27 77.8629 23.91 76.7029 23.19C75.5429 22.47 74.6229 21.46 73.9429 20.16C73.2829 18.84 72.9529 17.33 72.9529 15.63ZM86.0329 15.69C86.0329 14.67 85.8329 13.8 85.4329 13.08C85.0329 12.34 84.4929 11.78 83.8129 11.4C83.1329 11 82.4029 10.8 81.6229 10.8C80.8429 10.8 80.1229 10.99 79.4629 11.37C78.8029 11.75 78.2629 12.31 77.8429 13.05C77.4429 13.77 77.2429 14.63 77.2429 15.63C77.2429 16.63 77.4429 17.51 77.8429 18.27C78.2629 19.01 78.8029 19.58 79.4629 19.98C80.1429 20.38 80.8629 20.58 81.6229 20.58C82.4029 20.58 83.1329 20.39 83.8129 20.01C84.4929 19.61 85.0329 19.05 85.4329 18.33C85.8329 17.59 86.0329 16.71 86.0329 15.69Z" fill="url(#paint0_linear_1574_15441)"/>
<defs>
<linearGradient id="paint0_linear_1574_15441" x1="-15.7765" y1="13.2727" x2="111.05" y2="20.267" gradientUnits="userSpaceOnUse">
<stop offset="0.000444121" stop-color="#0075B6"/>
<stop offset="1" stop-color="#46CFFA"/>
</linearGradient>
</defs>
</svg>
